<?xml version="1.0" standalone="no"?>
<svg viewBox="0 0 200 200" xmlns="http://www.w3.org/2000/svg">

  <defs>
    <linearGradient id="grad1" x1="0%" y1="0%" x2="100%" y2="0%">
      <stop offset="0%" style="stop-color:#37ecba;stop-opacity:1" />
      <stop offset="100%" style="stop-color: #72afd3;stop-opacity:1" />
    </linearGradient>
  </defs>



  <path fill="url(#grad1)" d="M45.2,-72.5C59.2,-70.3,71.4,-59.3,77.6,-45.8C83.8,-32.2,84,-16.1,79.2,-2.8C74.4,10.6,64.6,21.1,58.8,35.4C53.1,49.7,51.3,67.8,42.2,72.6C33,77.5,16.5,69.2,4.5,61.4C-7.5,53.6,-15,46.2,-26.4,42.6C-37.8,39.1,-53.1,39.3,-63.6,32.8C-74,26.3,-79.7,13.2,-78.2,0.9C-76.6,-11.4,-67.9,-22.8,-59.1,-32.2C-50.3,-41.6,-41.4,-48.9,-31.5,-53.5C-21.7,-58,-10.8,-59.7,2.4,-63.8C15.6,-68,31.3,-74.6,45.2,-72.5Z" transform="translate(100 100)" />
</svg>
