<svg width="588" height="528" fill="none" xmlns="http://www.w3.org/2000/svg"><g clip-path="url(#clip0)"><path d="M214.562 511.934c0 8.07-73.867 8.929-164.78 14.611C-41.049 532.222-115 520.004-115 511.934c0-8.069 74.293-24.306 164.781-14.611 90.914 9.741 164.781 6.542 164.781 14.611z" fill="#E6E6E6"/><path d="M562.017 0H366.703a41.522 41.522 0 0 0-40.504 32.39l-98.688 437.738a33.548 33.548 0 0 0 6.019 27.686 33.556 33.556 0 0 0 25.065 13.211l200.785 9.893a44.34 44.34 0 0 0 29.757-9.566 44.338 44.338 0 0 0 16.049-26.822l55.982-309.486 4.165 1.19 10.712-58.66-4.287-1.071 15.626-86.39A25.564 25.564 0 0 0 562.018.002h-.001z" fill="#3F3D56"/><path d="M392.416 9.437h-22.799a28.695 28.695 0 0 0-28.034 22.577l-94.728 434.168a17.776 17.776 0 0 0 3.166 14.483 17.792 17.792 0 0 0 13.042 7.049l200.136 13.116a23.025 23.025 0 0 0 24.167-18.895l80.832-448.754a20.17 20.17 0 0 0-19.849-23.744h-21.628a9.517 9.517 0 0 0-9.191 7.044 8.406 8.406 0 0 1-8.114 6.218H406.737a14.362 14.362 0 0 1-14.321-13.262z" fill="#fff"/><path d="M178.188 232.759l17.646 34.935 52.763 23.987c5.635 9.522 23.54 10.251 24.842 4.093 1.461-6.908-21.743-18.027-21.743-18.027l-44.132-29.851-3.861-25.697-25.515 10.56zm2.081 234.44l-3.254 26.034 18.875 1.302 1.952-27.336h-17.573z" fill="#A0616A"/><path d="M182.873 489.328a51.172 51.172 0 0 1-4.658-5.696c-2.705-3.743-5.105 15.459-5.105 15.459s-2.603 7.81-1.953 11.716c.651 3.905 15.621 3.905 18.225 3.254 2.603-.651 15.62 0 15.62 0h19.526c16.923-7.81 0-13.017 0-13.017-5.207-.651-22.78-16.923-22.78-16.923l-3.905-7.16c-2.604-.65-5.207 9.113-5.207 9.113l-9.763 3.254z" fill="#2F2E41"/><path d="M131.455 467.524l-3.255 26.034 18.875 1.302 1.953-27.336h-17.573z" fill="#A0616A"/><path d="M134.058 489.653a51.051 51.051 0 0 1-4.657-5.696c-2.705-3.743-5.106 15.459-5.106 15.459s-2.603 7.16-1.952 11.065c.651 3.905 15.62 3.905 18.224 3.254 2.603-.651 15.621.651 15.621.651h19.525c16.923-7.81 0-13.017 0-13.017-5.206-.651-22.78-16.923-22.78-16.923l-3.905-7.159c-2.603-.651-5.207 9.112-5.207 9.112l-9.763 3.254zm18.875-190.051c-2.603 3.254-1.301 14.319-1.301 14.319s-4.557 35.797-2.604 39.051c1.953 3.255-1.302 5.858-3.254 10.414-1.953 4.556-3.905 15.621-3.905 15.621-11.065 9.112-10.414 50.767-10.414 50.767l-3.905 37.099c1.301 3.905 19.525 4.556 22.129 3.905 2.603-.651 10.414-59.228 10.414-59.228l17.573-33.194s-1.302 88.517-1.302 92.422c0 3.905 17.574 1.953 21.479 1.953 3.905 0 3.905-65.086 3.905-65.086l3.905-16.923 20.828-77.452v-9.112l-3.255-4.556s-67.689-3.255-70.293 0z" fill="#2F2E41"/><path d="M181.571 151.856c11.144 0 20.177-9.034 20.177-20.177 0-11.143-9.033-20.177-20.177-20.177-11.143 0-20.176 9.034-20.176 20.177 0 11.143 9.033 20.177 20.176 20.177z" fill="#A0616A"/><path d="M191.66 141.116c-4.09 9.108-1.668 21.828 6.508 35.798l-33.194-15.621 5.207-4.556-1.301-13.017 22.78-2.604z" fill="#A0616A"/><path d="M191.659 161.944c4.347 2.584 6.947 7.333 8.44 12.164a115.268 115.268 0 0 1 4.954 27.541l1.576 27.985 19.526 74.198c-16.922 14.319-26.685 11.065-49.465-.651-22.781-11.715-25.384 3.905-25.384 3.905s-1.953-.65 0-2.603c1.953-1.953 0 0-1.953-1.953-1.952-1.952 0 0 .651-1.952.651-1.953 0-.651-.651-1.302-.65-.651 2.604-6.509 2.604-6.509l-5.207-48.814-6.509-68.992c7.811-9.763 29.94-18.224 29.94-18.224l20.177 14.319c6.508 2.604 1.301-7.81 1.301-7.81v-1.302z" fill="#00B894"/><path d="M129.502 216.291l-2.603 39.052 33.194 47.513c0 11.064 5.857 13.668 5.857 13.668a85.935 85.935 0 0 0 5.858-11.065c3.255-7.159-1.952-13.017-1.952-13.017l-22.781-48.164 9.763-24.082-27.336-3.905z" fill="#A0616A"/><path d="M140.567 175.287c-11.065 3.905-13.017 46.211-13.017 46.211 13.017-7.159 28.638 4.556 28.638 4.556s3.254-11.065 7.159-25.384a24.88 24.88 0 0 0-5.207-23.431s-6.508-5.857-17.573-1.952z" fill="#00B894"/><path d="M163.021 137.862c2.569-2.055 6.073 1.68 6.073 1.68l2.055-18.494s12.843 1.542 21.063-.513c8.219-2.055 9.503 7.449 9.503 7.449.424-3.838.51-7.706.257-11.559-.513-4.623-7.192-9.247-19.007-12.329-11.816-3.082-17.981 10.274-17.981 10.274-8.219 4.11-4.531 25.547-1.963 23.492z" fill="#2F2E41"/><path d="M505.992 312.958a1.644 1.644 0 0 0 1.676-1.329l44.876-244.263a1.623 1.623 0 0 0-1.577-1.917l-204.171-2.378h-.019a1.631 1.631 0 0 0-1.584 1.268l-52.904 236.335a1.625 1.625 0 0 0 1.505 1.975l212.198 10.309zM328.31 328.561a.809.809 0 0 0-.789.627l-1.886 8.082a.817.817 0 0 0 .399.896c.103.056.217.09.334.098l106.523 7.571a.816.816 0 0 0 .855-.654l1.813-9.35a.81.81 0 0 0-.748-.965l-106.452-6.304-.049-.001zm129.42 47.302a.816.816 0 0 0 .853-.615l2.308-9.37a.815.815 0 0 0-.396-.905.808.808 0 0 0-.336-.099l-136.036-9.514a.802.802 0 0 0-.835.578l-2.398 8.097a.818.818 0 0 0 .371.933.791.791 0 0 0 .342.106l136.127 10.789zm-7.306 30.034a.81.81 0 0 0 .853-.615l2.308-9.37a.815.815 0 0 0-.396-.905.808.808 0 0 0-.336-.099l-136.035-9.514a.803.803 0 0 0-.835.579l-2.399 8.096a.806.806 0 0 0 .371.933.8.8 0 0 0 .342.106l136.127 10.789z" fill="#E6E6E6"/><path d="M387.771 457.422a.801.801 0 0 0 .864-.612l4.881-19.523a.822.822 0 0 0-.128-.67.796.796 0 0 0-.592-.337l-83.54-7.027a.828.828 0 0 0-.86.633l-4.164 18.737a.821.821 0 0 0 .137.654.804.804 0 0 0 .58.331l82.822 7.814z" fill="#00B894"/></g><defs><clipPath id="clip0"><path fill="#fff" transform="translate(-115)" d="M0 0H702.797V528H0z"/></clipPath></defs></svg>